<svg xmlns="http://www.w3.org/2000/svg" viewBox="0 0 1024 1024" width="1024" height="1024">
  <defs>
    <radialGradient id="bg" cx="50%" cy="36%" r="78%">
      <stop offset="0" stop-color="#2B4875"/>
      <stop offset="0.5" stop-color="#152541"/>
      <stop offset="1" stop-color="#080F1E"/>
    </radialGradient>
    <linearGradient id="fire" gradientUnits="userSpaceOnUse" x1="512" y1="170" x2="512" y2="854">
      <stop offset="0" stop-color="#FFD66E"/>
      <stop offset="0.5" stop-color="#FF8F2E"/>
      <stop offset="1" stop-color="#F2482B"/>
    </linearGradient>
    <radialGradient id="core" cx="50%" cy="50%" r="50%">
      <stop offset="0" stop-color="#FFF8E2"/>
      <stop offset="0.45" stop-color="#FFD067"/>
      <stop offset="1" stop-color="#FF7A22"/>
    </radialGradient>
    <radialGradient id="halo" cx="50%" cy="50%" r="50%">
      <stop offset="0" stop-color="#FFB547" stop-opacity="0.75"/>
      <stop offset="0.4" stop-color="#FF7A22" stop-opacity="0.28"/>
      <stop offset="1" stop-color="#FF7A22" stop-opacity="0"/>
    </radialGradient>
    <filter id="glow" x="-30%" y="-30%" width="160%" height="160%">
      <feGaussianBlur stdDeviation="22"/>
    </filter>
  </defs>
  <rect width="1024" height="1024" fill="url(#bg)"/>
  <circle cx="512" cy="512" r="300" fill="url(#halo)"/>
  <g id="reticle" fill="none" stroke="url(#fire)" stroke-linecap="round">
    <g stroke-width="46">
      <path d="M825 578.5 A320 320 0 0 1 578.5 825"/>
      <path d="M445.5 825 A320 320 0 0 1 199 578.5"/>
      <path d="M199 445.5 A320 320 0 0 1 445.5 199"/>
      <path d="M578.5 199 A320 320 0 0 1 825 445.5"/>
    </g>
    <g stroke-width="30">
      <path d="M262 512 H368"/>
      <path d="M656 512 H762"/>
      <path d="M512 262 V368"/>
      <path d="M512 656 V762"/>
    </g>
  </g>
  <use href="#reticle" filter="url(#glow)" opacity="0.55"/>
  <path d="M512 392 C526 470 554 498 632 512 C554 526 526 554 512 632 C498 554 470 526 392 512 C470 498 498 470 512 392 Z" fill="url(#core)" filter="url(#glow)" opacity="0.8"/>
  <path d="M512 392 C526 470 554 498 632 512 C554 526 526 554 512 632 C498 554 470 526 392 512 C470 498 498 470 512 392 Z" fill="url(#core)"/>
  <circle cx="512" cy="512" r="18" fill="#FFFDF5"/>
</svg>
